<?xml version="1.0" encoding="utf-8"?>
<!-- Generator: Adobe Illustrator 26.0.2, SVG Export Plug-In . SVG Version: 6.00 Build 0)  -->
<svg version="1.1" id="Layer_1" xmlns="http://www.w3.org/2000/svg" xmlns:xlink="http://www.w3.org/1999/xlink" x="0px" y="0px"
	 viewBox="0 0 290.9 146.6" style="enable-background:new 0 0 290.9 146.6;" xml:space="preserve">
<style type="text/css">
	.st0{fill:#F21111;}
	.st1{font-family:'ArialRoundedMTBold';}
	.st2{font-size:100px;}
	.st3{font-size:72px;}
	.st4{font-size:57px;}
	.st5{fill:#A7A8AA;}
	.st6{fill:#5E5F60;}
	.st7{fill:#A7A8AA;stroke:#5E5F60;stroke-width:4.04;stroke-miterlimit:10;}
	.st8{fill:none;stroke:#5E5F60;stroke-width:4.04;stroke-miterlimit:10;}
</style>
<text transform="matrix(1 0 0 1 0 86.4)" class="st0 st1 st2">M</text>
<text transform="matrix(1 0 0 1 83.3 86.4)" class="st0 st1 st3">     </text>
<text transform="matrix(1 0 0 1 173.3 86.4)" class="st0 st1 st4">GLE</text>
<path class="st5" d="M103.5,86.4c-11.3,0-20.5-9.2-20.4-20.5s9.2-20.5,20.5-20.4c11.3,0,20.4,9.2,20.4,20.5
	C124,77.2,114.8,86.4,103.5,86.4z"/>
<path class="st6" d="M103.5,47.4c10.2,0,18.5,8.2,18.5,18.4c0,10.2-8.2,18.5-18.4,18.5c-10.2,0-18.5-8.2-18.5-18.4c0,0,0,0,0,0
	C85.1,55.7,93.3,47.5,103.5,47.4 M103.5,43.4C91.1,43.4,81,53.5,81,65.9s10.1,22.5,22.5,22.5S126,78.4,126,65.9
	C126,53.5,116,43.4,103.5,43.4C103.5,43.4,103.5,43.4,103.5,43.4L103.5,43.4z"/>
<path class="st5" d="M148.5,86.4c-11.3,0-20.5-9.2-20.5-20.5c0-11.3,9.2-20.5,20.5-20.5c11.3,0,20.5,9.2,20.5,20.5c0,0,0,0,0,0
	C169,77.2,159.8,86.3,148.5,86.4z"/>
<path class="st6" d="M148.5,47.4c10.2,0,18.5,8.3,18.5,18.4s-8.3,18.5-18.4,18.5s-18.5-8.3-18.5-18.4c0,0,0,0,0,0
	C130.1,55.7,138.3,47.5,148.5,47.4 M148.5,43.4c-12.4,0-22.5,10.1-22.5,22.5s10.1,22.5,22.5,22.5c12.4,0,22.5-10.1,22.5-22.5
	c0,0,0,0,0,0C171,53.5,161,43.4,148.5,43.4C148.5,43.4,148.5,43.4,148.5,43.4L148.5,43.4z"/>
<circle class="st5" cx="103.5" cy="65.9" r="2.3"/>
<path class="st6" d="M103.5,65.3c0.3,0,0.6,0.2,0.6,0.6s-0.2,0.6-0.6,0.6c-0.3,0-0.6-0.2-0.6-0.6c0,0,0,0,0,0
	C102.9,65.6,103.2,65.3,103.5,65.3 M103.5,61.9c-2.2,0-4,1.8-4,4c0,2.2,1.8,4,4,4s4-1.8,4-4C107.5,63.7,105.7,61.9,103.5,61.9z"/>
<path class="st5" d="M148.5,68.2c-1.3,0-2.3-1-2.3-2.3c0-1.3,1-2.3,2.3-2.3c1.3,0,2.3,1,2.3,2.3c0,0,0,0,0,0
	C150.8,67.2,149.8,68.2,148.5,68.2z"/>
<path class="st6" d="M148.5,65.3c0.3,0,0.5,0.3,0.5,0.7c0,0.3-0.2,0.5-0.5,0.5c-0.3,0-0.6-0.2-0.7-0.5c0-0.3,0.2-0.6,0.5-0.7
	C148.4,65.3,148.5,65.3,148.5,65.3 M148.5,61.9c-2.2,0-4,1.8-4,4c0,2.2,1.8,4,4,4s4-1.8,4-4C152.5,63.7,150.7,61.9,148.5,61.9z"/>
<polygon class="st7" points="162.1,110.5 182.3,124 182.3,96.9 "/>
<path class="st5" d="M90.6,92.7h72.1c3.5,0,6.3,2.8,6.3,6.3v21.3c0,3.5-2.8,6.3-6.3,6.3H90.6c-3.5,0-6.3-2.8-6.3-6.3V99.1
	C84.2,95.5,87.1,92.7,90.6,92.7z"/>
<path class="st6" d="M162.6,94.7c2.4,0,4.3,1.9,4.3,4.3v21.3c0,2.4-1.9,4.3-4.3,4.3H90.6c-2.4,0-4.3-1.9-4.3-4.3V99
	c0-2.4,1.9-4.3,4.3-4.3H162.6 M162.6,90.7H90.6c-4.6,0-8.3,3.7-8.4,8.3v21.3c0,4.6,3.8,8.3,8.4,8.4h72.1c4.6,0,8.3-3.7,8.4-8.4V99
	C171,94.4,167.3,90.7,162.6,90.7L162.6,90.7z"/>
<line class="st8" x1="126.9" y1="127" x2="113.1" y2="145.4"/>
<line class="st8" x1="126.9" y1="127" x2="140.8" y2="145.4"/>
</svg>
